<svg preserveAspectRatio="none" width="100%" height="100%" overflow="visible" style="display: block;" viewBox="0 0 100 100" fill="none" xmlns="http://www.w3.org/2000/svg">
<path id="logo" fill-rule="evenodd" clip-rule="evenodd" d="M0 36.6144H8.45928C10.2852 36.6144 12.0089 36.9683 13.6285 37.675C15.2491 38.3826 16.6696 39.3472 17.8913 40.5687C19.113 41.7907 20.0767 43.2114 20.7852 44.8307C21.2183 45.824 21.5176 46.8555 21.6852 47.9262C22.0943 45.1244 23.3557 42.6646 25.4715 40.5494C28.043 37.9255 31.1928 36.6144 34.9222 36.6144C38.6259 36.6144 41.7757 37.9255 44.3739 40.5494C46.2889 42.4464 47.508 44.6196 48.0385 47.0681V36.6144L61.4237 49.9999L74.8489 36.6144V47.0538C75.3759 44.6114 76.5828 42.4418 78.4752 40.5494C81.0472 37.9255 84.198 36.6144 87.9274 36.6144C91.6309 36.6144 94.7796 37.9255 97.3778 40.5492C98.4837 41.6435 99.355 42.8331 100 44.1118V0H0V36.6144ZM87.9274 63.3856C84.2237 63.3856 81.073 62.0748 78.475 59.4506C76.5826 57.5769 75.3757 55.4128 74.8487 52.9619V63.3854H70.3341V47.3764L61.4237 56.3258L52.4754 47.3764V63.3856H48.0385V52.963C47.5078 55.4275 46.2889 57.5915 44.3739 59.4506C41.7757 62.0745 38.6259 63.3856 34.9222 63.3856C31.2198 63.3856 28.0689 62.0748 25.4717 59.4506C23.3537 57.3547 22.0924 54.8969 21.6841 52.0803C21.5159 53.1484 21.2172 54.1782 20.7852 55.1691C20.0767 56.7893 19.1193 58.2108 17.9109 59.4317C16.7022 60.6532 15.2813 61.6176 13.648 62.3243C12.0148 63.033 10.2855 63.3856 8.45939 63.3856H0V100H100V55.9249C99.355 57.201 98.4835 58.3776 97.3778 59.4508C94.7798 62.0748 91.6309 63.3856 87.9274 63.3856ZM14.7661 56.2838C15.577 55.4601 16.2135 54.5095 16.6759 53.4288C17.1396 52.3482 17.3707 51.2047 17.3707 49.9951C17.3707 48.7873 17.1396 47.6421 16.6759 46.5625C16.2135 45.4818 15.5704 44.5309 14.7478 43.7072C13.9239 42.8844 12.9724 42.2416 11.8926 41.779C10.8129 41.3155 9.66767 41.0842 8.45898 41.0842H3.98437V58.9067H8.45898C9.69348 58.9067 10.8516 58.6754 11.9313 58.2119C13.0111 57.7495 13.9563 57.1065 14.7661 56.2838ZM94.215 56.3295C95.9637 54.5551 96.8387 52.4473 96.8387 50.0032C96.8387 47.5607 95.9637 45.4649 94.215 43.7153C92.4665 41.9666 90.3713 41.0922 87.9285 41.0922C85.485 41.0922 83.3754 41.9666 81.6011 43.7153C79.878 45.4646 79.0176 47.5607 79.0176 50.0032C79.0176 52.4473 79.878 54.5551 81.6011 56.3295C83.3754 58.0534 85.485 58.915 87.9285 58.915C90.3715 58.9147 92.4665 58.0534 94.215 56.3295ZM41.2111 56.3295C42.9596 54.5551 43.8339 52.4473 43.8339 50.0032C43.8339 47.5607 42.9596 45.4649 41.2111 43.7153C39.4615 41.9666 37.3657 41.0922 34.9222 41.0922C32.4789 41.0922 30.3702 41.9666 28.5959 43.7153C26.8728 45.4646 26.0115 47.5607 26.0115 50.0032C26.0115 52.4473 26.8728 54.5551 28.5959 56.3295C30.3702 58.0534 32.4789 58.915 34.9222 58.915C37.3657 58.9147 39.4615 58.0534 41.2111 56.3295Z" fill="var(--fill-0, #99CCEE)"/>
</svg>
